# xmcd
#
# Track frame offsets: 
#        150
#        16605
#        32930
#        50792
#        62652
#        75742
#        87930
#        108667
#        124250
#        146370
#        162100
#        172987
#        185970
#
# Disc length: 2736 seconds
#
# Revision: 0
# Processed by: cddbd v1.4PL0 Copyright (c) Steve Scherf et al.
# Submitted via: ExactAudioCopy v0.90b4
#
DISCID=ae0aae0d
DTITLE=the electric kings - Not for sale
DYEAR=1900
DGENRE=
TTITLE0=Long distance call
TTITLE1=Bring it on home
TTITLE2=Drink my liquor
TTITLE3=Kill that cat
TTITLE4=Don't get around
TTITLE5=All your lovin'
TTITLE6=Blue and lonesome
TTITLE7=Country boy
TTITLE8=Trust my baby
TTITLE9=Goin' to the mall
TTITLE10=Hey hey baby
TTITLE11=Callin' on my darlin'
TTITLE12=Just wanna make love to you
EXTD=
EXTT0=
EXTT1=
EXTT2=
EXTT3=
EXTT4=
EXTT5=
EXTT6=
EXTT7=
EXTT8=
EXTT9=
EXTT10=
EXTT11=
EXTT12=
PLAYORDER=
